####
#
# OBJ File Generated by Meshlab
#
####
# Object bulbasaur.obj
#
# Vertices: 176
# Faces: 348
#
####
vn 0.316918 1.110709 0.369299
v -3.064771 -11.032446 -0.000000
vn 1.189010 2.246768 3.580761
v -1.221433 -9.940593 -0.000000
vn 0.000000 0.000000 6.283185
v -0.981698 -7.008458 -0.000000
vn 2.614068 1.537217 3.685833
v -4.050365 -8.279258 0.000000
vn -0.033193 0.731131 0.213850
v -0.387022 -11.701052 -0.000000
vn -0.780685 2.026038 4.113498
v 0.260754 -9.914869 -0.000000
vn -0.332919 0.673247 0.207684
v 1.884672 -11.156543 -0.000000
vn 2.361196 -1.211466 3.214218
v -5.831573 -1.956808 0.000000
vn -2.635686 -0.808569 2.069944
v 2.008278 -6.016994 -0.000000
vn -0.786028 -2.602472 2.452073
v -3.260069 -0.737951 -0.000000
vn 4.878592 0.348933 0.566195
v -5.343847 1.742669 8.636453
vn 3.176529 -1.269114 -0.073492
v -9.183522 -0.893070 6.070439
vn 3.417151 2.220912 -0.809617
v -7.740360 -8.121269 7.314537
vn 5.369964 0.124404 -1.286611
v -5.160341 -0.940481 9.987398
vn 5.382210 1.589480 0.438259
v -4.728914 -5.755340 11.961746
vn 1.740633 5.497615 -0.536337
v -3.003274 -9.483614 1.721695
vn 0.013287 5.557944 -1.360010
v -1.212938 -9.255992 1.770178
vn -0.560105 5.244698 -1.769546
v 0.258234 -9.116102 1.792817
vn -4.003850 3.355195 -1.659183
v 1.123576 -9.033822 1.806145
vn 0.963700 4.880846 -1.177733
v -3.881797 -10.188534 6.862835
vn -0.493159 5.425683 -1.626161
v -1.210141 -9.984471 6.831573
vn -0.543397 5.428515 -1.643984
v -0.421694 -9.907043 6.826636
vn -0.573752 5.422047 -1.629605
v 0.232477 -9.842800 6.822540
vn 0.913634 4.785036 3.011368
v 1.824874 -9.656326 6.844675
vn -1.301375 1.654766 2.834180
v 1.980249 -6.047980 3.211541
vn 5.371563 -0.416817 -1.142134
v -6.933774 1.761387 15.239523
vn 5.279270 0.685742 -0.151778
v -7.114484 -7.137779 17.381939
vn 4.288927 -2.346749 -3.457684
v -2.825468 -0.440980 21.676025
vn 5.285017 -1.505611 -1.014440
v -4.877664 -4.074657 24.976097
vn -0.000000 4.278779 4.228574
v 7.105511 -11.013316 5.820694
vn 5.030934 0.155201 -3.449197
v -7.165724 9.040521 10.789065
vn 5.224112 -0.186351 -0.780035
v -3.170844 6.966537 17.590137
vn 2.771103 4.857393 -1.626006
v -0.444685 0.278953 24.426254
vn 4.056223 -3.696631 -0.667710
v -2.211610 16.221102 13.801003
vn -0.000000 1.597225 -2.845430
v 7.105511 -0.970968 25.102303
vn -0.000000 -4.090706 -4.692877
v 7.105511 -4.910136 28.112289
vn 3.496549 -1.581584 -1.091399
v -9.777061 13.328026 8.897413
vn 2.476737 -4.940377 -0.503375
v -3.539585 17.840708 9.352216
vn -0.000000 -5.609917 -1.510492
v 7.105511 20.237629 8.716763
vn -0.000000 -5.311726 -0.020696
v 7.105511 18.099066 11.975166
vn 3.602902 -3.112796 1.990840
v -2.673096 18.890745 17.145510
vn 4.669590 0.667845 0.898976
v -6.834360 9.528061 21.660435
vn 0.000000 -4.890338 3.085452
v 7.105511 21.718647 16.051022
vn 3.450783 3.669884 -0.730681
v -2.231465 1.276330 26.401829
vn -0.000000 5.421237 -1.029411
v 7.105511 -1.254268 27.710480
vn 3.345070 -3.924446 -0.544896
v -2.439267 20.129362 21.447412
vn 4.624359 -0.904221 -2.077415
v -6.111189 11.883239 25.530909
vn -0.000000 -5.235200 0.337259
v 7.105511 23.385216 19.823753
vn 3.030435 2.358483 -3.355448
v -1.618995 2.608608 29.357271
vn 0.000000 3.207547 -3.822836
v 7.105511 0.586423 31.542137
vn 1.318500 -3.515152 -3.610840
v 4.575385 18.652987 32.498756
vn 1.864450 -2.227840 -4.192605
v 3.673786 16.673199 33.649315
vn -0.000000 -3.714215 -3.478073
v 7.105511 19.461742 32.165310
vn 1.133374 -1.283115 -4.768078
v 4.834488 14.884758 34.705757
vn -0.000000 -0.564369 -5.116459
v 7.105511 13.794237 35.190655
vn -0.000000 -2.743296 -4.991757
v 7.105511 16.312052 32.717899
vn 4.044748 2.085530 -0.191449
v -9.901450 5.200767 5.298986
vn -0.191574 5.264639 0.339221
v -5.319191 3.684272 1.954040
vn 2.260145 5.520239 0.324501
v -6.042631 4.091104 1.982216
vn 3.384230 4.763441 -0.298199
v -7.140143 4.710122 2.019522
vn 2.425131 5.465221 0.170048
v -8.237656 5.329141 2.056828
vn 5.251423 1.716343 -0.611935
v -9.132410 5.853298 2.025129
vn 0.712626 1.294907 0.635403
v -7.618393 3.238672 -0.000000
vn 0.876681 2.183407 4.312151
v -8.095858 5.275326 -0.000000
vn -0.026925 1.037021 0.393131
v -4.902212 2.487860 -0.000000
vn 0.625739 2.144310 4.697151
v -5.770444 4.235091 -0.000000
vn 0.740973 0.718099 0.408968
v -10.111200 4.538015 -0.000000
vn 2.585946 -1.496368 3.152851
v -8.142498 10.910300 -0.000000
vn -0.007400 2.007392 4.914729
v -2.084537 6.858379 -0.000000
vn 0.074017 1.331064 0.888034
v -2.409755 7.000259 4.940512
vn 0.987458 -2.779381 3.804659
v -0.635246 16.024029 -0.000000
vn -0.000000 2.710151 4.616274
v 7.105511 -5.860372 -0.000000
vn 1.059053 2.608836 2.858157
v 4.299572 -5.870481 -0.000000
vn 2.387900 0.937209 4.904538
v 0.879072 3.471596 -0.000000
vn -0.000000 -1.855924 5.647687
v 7.105511 13.921399 -0.000000
vn -0.000000 -5.429318 1.572574
v 7.105511 20.307261 5.998924
vn 0.450683 -5.042483 2.194642
v 4.312512 19.777184 4.783572
vn 3.138526 3.249888 1.945882
v -3.398354 -15.103041 13.776405
vn 1.425741 5.105617 1.812348
v 3.497497 -18.065638 14.275285
vn 3.822318 3.553041 -0.829765
v -4.106173 -14.619212 16.386663
vn 1.325863 5.562714 -1.584507
v 3.658535 -17.970490 16.720324
vn 4.210492 3.222247 0.380465
v 1.717263 -13.163325 21.238882
vn 2.722403 1.340285 -2.613950
v 1.709148 -14.146294 17.937239
vn -0.636077 2.498517 -2.099550
v -0.694821 -12.434591 18.050358
vn -0.407453 3.201752 0.360793
v -0.565292 -11.469629 21.414639
vn 0.000000 3.916651 -3.607278
v 7.105511 -14.252725 26.188250
vn 3.172287 3.787973 -2.792367
v -2.468581 -9.879591 25.850567
vn -0.417179 -0.448517 -4.984947
v 1.116246 -6.642818 28.835402
vn 0.000000 -0.684795 -5.038263
v 7.105511 -6.642818 29.569044
vn 0.282478 -2.567145 -2.989615
v -3.461071 -4.680057 30.602924
vn 3.422482 4.582970 -1.497896
v 1.907743 -13.958077 22.374031
vn 1.645669 5.395474 -1.600399
v -1.080812 -12.263157 22.853281
vn 0.918456 4.369029 -3.817312
v -2.022471 -14.751970 17.750555
vn 2.827938 4.096858 -3.359333
v 1.743997 -16.544794 17.743172
vn -0.000000 5.163818 1.149739
v 7.105511 -18.657711 14.438449
vn 1.876333 0.378943 -1.524569
v -5.271984 -6.322597 30.602924
vn -0.996690 1.899745 -4.253237
v -2.459922 -6.700052 30.602924
vn -0.316918 1.110709 0.369299
v 17.275791 -11.032446 -0.000000
vn -2.614068 1.537218 3.685832
v 18.261387 -8.279258 0.000000
vn -0.000000 0.000000 6.283185
v 15.192719 -7.008458 -0.000000
vn -1.189010 2.246768 3.580761
v 15.432454 -9.940593 -0.000000
vn 0.033193 0.731131 0.213850
v 14.598042 -11.701052 -0.000000
vn 0.780684 2.026038 4.113497
v 13.950267 -9.914869 -0.000000
vn 0.332919 0.673246 0.207685
v 12.326349 -11.156543 -0.000000
vn -2.361196 -1.211465 3.214217
v 20.042595 -1.956808 0.000000
vn 2.635686 -0.808569 2.069943
v 12.202744 -6.016994 -0.000000
vn 0.786028 -2.602473 2.452074
v 17.471092 -0.737951 -0.000000
vn -3.176529 -1.269115 -0.073492
v 23.394543 -0.893070 6.070439
vn -4.878593 0.348933 0.566197
v 19.554867 1.742669 8.636453
vn -3.417151 2.220912 -0.809616
v 21.951382 -8.121269 7.314537
vn -5.382212 1.589479 0.438259
v 18.939938 -5.755340 11.961746
vn -5.369964 0.124403 -1.286610
v 19.371361 -0.940481 9.987398
vn -1.740632 5.497615 -0.536337
v 17.214294 -9.483614 1.721695
vn -0.013287 5.557944 -1.360010
v 15.423959 -9.255992 1.770178
vn 0.560105 5.244698 -1.769545
v 13.952787 -9.116102 1.792817
vn 4.003850 3.355195 -1.659183
v 13.087446 -9.033822 1.806145
vn 0.493159 5.425683 -1.626161
v 15.421163 -9.984471 6.831573
vn -0.963701 4.880845 -1.177732
v 18.092819 -10.188534 6.862835
vn 0.543396 5.428515 -1.643984
v 14.632716 -9.907043 6.826636
vn 0.573751 5.422046 -1.629605
v 13.978543 -9.842800 6.822540
vn -0.913634 4.785036 3.011369
v 12.386147 -9.656326 6.844675
vn 1.301375 1.654766 2.834180
v 12.230772 -6.047980 3.211541
vn -5.279271 0.685742 -0.151778
v 21.325504 -7.137779 17.381939
vn -5.371563 -0.416817 -1.142134
v 21.144794 1.761387 15.239523
vn -5.285017 -1.505612 -1.014439
v 19.088684 -4.074657 24.976097
vn -4.288928 -2.346748 -3.457684
v 17.036488 -0.440980 21.676025
vn -5.030935 0.155202 -3.449196
v 21.376747 9.040521 10.789065
vn -2.771103 4.857393 -1.626006
v 14.655707 0.278953 24.426254
vn -5.224113 -0.186351 -0.780034
v 17.381866 6.966537 17.590137
vn -4.056223 -3.696632 -0.667710
v 16.422630 16.221102 13.801003
vn -2.476737 -4.940377 -0.503375
v 17.750607 17.840708 9.352216
vn -3.496550 -1.581583 -1.091399
v 23.988083 13.328026 8.897413
vn -4.669590 0.667845 0.898976
v 21.045383 9.528061 21.660435
vn -3.602902 -3.112797 1.990840
v 16.884117 18.890745 17.145510
vn -3.450784 3.669885 -0.730682
v 16.442486 1.276330 26.401829
vn -4.624359 -0.904221 -2.077415
v 20.322212 11.883239 25.530909
vn -3.345070 -3.924447 -0.544896
v 16.650288 20.129362 21.447412
vn -3.030436 2.358483 -3.355448
v 15.830016 2.608608 29.357271
vn -1.864450 -2.227840 -4.192605
v 10.537236 16.673199 33.649315
vn -1.318500 -3.515153 -3.610840
v 9.635636 18.652987 32.498756
vn -1.133374 -1.283114 -4.768078
v 9.376534 14.884758 34.705757
vn -4.044751 2.085534 -0.191450
v 24.112469 5.200767 5.298986
vn -5.251422 1.716345 -0.611933
v 23.343433 5.853298 2.025129
vn -2.425126 5.465224 0.170047
v 22.448677 5.329141 2.056828
vn -3.384229 4.763440 -0.298199
v 21.351162 4.710122 2.019522
vn -2.260149 5.520236 0.324503
v 20.253651 4.091104 1.982216
vn 0.191570 5.264638 0.339223
v 19.530212 3.684272 1.954040
vn -0.876681 2.183406 4.312151
v 22.306877 5.275326 -0.000000
vn -0.712626 1.294906 0.635402
v 21.829414 3.238672 -0.000000
vn -0.625740 2.144309 4.697152
v 19.981464 4.235091 -0.000000
vn 0.026925 1.037021 0.393131
v 19.113232 2.487860 -0.000000
vn -0.740973 0.718100 0.408969
v 24.322220 4.538015 -0.000000
vn -2.585946 -1.496368 3.152852
v 22.353519 10.910300 -0.000000
vn 0.007400 2.007392 4.914729
v 16.295559 6.858379 -0.000000
vn -0.074017 1.331064 0.888034
v 16.620777 7.000259 4.940512
vn -0.987458 -2.779381 3.804659
v 14.846269 16.024029 -0.000000
vn -1.059053 2.608836 2.858157
v 9.911449 -5.870481 -0.000000
vn -2.387900 0.937209 4.904538
v 13.331949 3.471596 -0.000000
vn -0.450683 -5.042483 2.194642
v 9.898509 19.777184 4.783572
vn -1.425741 5.105618 1.812348
v 10.713525 -18.065638 14.275285
vn -3.138526 3.249888 1.945882
v 17.609375 -15.103041 13.776405
vn -1.325863 5.562715 -1.584508
v 10.552485 -17.970490 16.720324
vn -3.822319 3.553042 -0.829765
v 18.317192 -14.619212 16.386663
vn -4.210491 3.222248 0.380465
v 12.493758 -13.163325 21.238882
vn 0.407454 3.201752 0.360792
v 14.776315 -11.469629 21.414639
vn 0.636077 2.498517 -2.099551
v 14.905843 -12.434591 18.050358
vn -2.722403 1.340285 -2.613949
v 12.501873 -14.146294 17.937239
vn 0.417179 -0.448517 -4.984947
v 13.094775 -6.642818 28.835402
vn -3.172287 3.787973 -2.792367
v 16.679604 -9.879591 25.850567
vn -0.282479 -2.567145 -2.989615
v 17.672092 -4.680057 30.602924
vn -1.645670 5.395474 -1.600397
v 15.291833 -12.263157 22.853281
vn -3.422483 4.582969 -1.497896
v 12.303278 -13.958077 22.374031
vn -2.827938 4.096857 -3.359332
v 12.467025 -16.544794 17.743172
vn -0.918459 4.369029 -3.817310
v 16.233494 -14.751970 17.750555
vn -1.876333 0.378942 -1.524569
v 19.483006 -6.322597 30.602924
vn 0.996690 1.899746 -4.253237
v 16.670944 -6.700052 30.602924
# 176 vertices, 0 vertices normals

f 1//1 2//2 3//3
f 3//3 4//4 1//1
f 2//2 5//5 3//3
f 5//5 6//6 3//3
f 3//3 6//6 7//7
f 8//8 4//4 3//3
f 3//3 7//7 9//9
f 8//8 3//3 10//10
f 10//10 3//3 9//9
f 8//8 10//10 11//11
f 11//11 12//12 8//8
f 4//4 8//8 12//12
f 12//12 13//13 4//4
f 13//13 12//12 14//14
f 14//14 15//15 13//13
f 1//1 4//4 16//16
f 2//2 1//1 16//16
f 16//16 17//17 2//2
f 5//5 2//2 17//17
f 17//17 18//18 5//5
f 6//6 5//5 18//18
f 7//7 6//6 18//18
f 18//18 19//19 7//7
f 17//17 16//16 20//20
f 20//20 21//21 17//17
f 18//18 17//17 21//21
f 21//21 22//22 18//18
f 18//18 22//22 23//23
f 19//19 18//18 23//23
f 23//23 24//24 19//19
f 21//21 20//20 15//15
f 22//22 21//21 15//15
f 23//23 22//22 15//15
f 24//24 23//23 15//15
f 13//13 20//20 16//16
f 16//16 4//4 13//13
f 20//20 13//13 15//15
f 9//9 7//7 19//19
f 19//19 25//25 9//9
f 10//10 9//9 25//25
f 25//25 11//11 10//10
f 19//19 24//24 25//25
f 12//12 11//11 14//14
f 15//15 14//14 26//26
f 26//26 27//27 15//15
f 27//27 26//26 28//28
f 28//28 29//29 27//27
f 25//25 24//24 30//30
f 14//14 11//11 31//31
f 31//31 26//26 14//14
f 28//28 26//26 32//32
f 32//32 33//33 28//28
f 26//26 31//31 34//34
f 34//34 32//32 26//26
f 28//28 33//33 35//35
f 35//35 36//36 28//28
f 34//34 31//31 37//37
f 37//37 38//38 34//34
f 34//34 38//38 39//39
f 39//39 40//40 34//34
f 32//32 34//34 41//41
f 41//41 42//42 32//32
f 34//34 40//40 43//43
f 43//43 41//41 34//34
f 33//33 32//32 42//42
f 42//42 44//44 33//33
f 35//35 33//33 44//44
f 44//44 45//45 35//35
f 42//42 41//41 46//46
f 46//46 47//47 42//42
f 41//41 43//43 48//48
f 48//48 46//46 41//41
f 44//44 42//42 47//47
f 47//47 49//49 44//44
f 45//45 44//44 49//49
f 49//49 50//50 45//45
f 47//47 46//46 51//51
f 51//51 52//52 47//47
f 46//46 48//48 53//53
f 53//53 51//51 46//46
f 49//49 47//47 52//52
f 52//52 54//54 49//49
f 50//50 49//49 54//54
f 54//54 55//55 50//50
f 52//52 51//51 56//56
f 51//51 53//53 56//56
f 54//54 52//52 56//56
f 55//55 54//54 56//56
f 31//31 11//11 57//57
f 57//57 37//37 31//31
f 57//57 11//11 58//58
f 57//57 58//58 59//59
f 57//57 59//59 60//60
f 57//57 60//60 61//61
f 57//57 61//61 62//62
f 60//60 63//63 64//64
f 64//64 61//61 60//60
f 58//58 65//65 66//66
f 66//66 59//59 58//58
f 59//59 66//66 63//63
f 63//63 60//60 59//59
f 67//67 62//62 61//61
f 61//61 64//64 67//67
f 62//62 67//67 68//68
f 62//62 68//68 37//37
f 37//37 57//57 62//62
f 65//65 58//58 69//69
f 69//69 58//58 11//11
f 11//11 70//70 69//69
f 69//69 71//71 68//68
f 66//66 65//65 69//69
f 69//69 68//68 66//66
f 66//66 68//68 64//64
f 64//64 63//63 66//66
f 67//67 64//64 68//68
f 25//25 30//30 72//72
f 72//72 73//73 25//25
f 11//11 25//25 73//73
f 73//73 74//74 11//11
f 71//71 75//75 76//76
f 76//76 77//77 71//71
f 39//39 38//38 77//77
f 77//77 76//76 39//39
f 74//74 69//69 70//70
f 70//70 11//11 74//74
f 37//37 68//68 71//71
f 71//71 38//38 37//37
f 38//38 71//71 77//77
f 69//69 74//74 75//75
f 75//75 71//71 69//69
f 74//74 73//73 72//72
f 72//72 75//75 74//74
f 30//30 24//24 78//78
f 78//78 79//79 30//30
f 79//79 78//78 80//80
f 80//80 81//81 79//79
f 82//82 83//83 84//84
f 84//84 85//85 82//82
f 86//86 87//87 88//88
f 88//88 89//89 86//86
f 36//36 89//89 88//88
f 88//88 28//28 36//36
f 87//87 80//80 27//27
f 27//27 29//29 87//87
f 28//28 88//88 90//90
f 90//90 29//29 28//28
f 27//27 80//80 78//78
f 78//78 15//15 27//27
f 86//86 91//91 92//92
f 92//92 87//87 86//86
f 80//80 93//93 94//94
f 94//94 81//81 80//80
f 86//86 81//81 94//94
f 94//94 91//91 86//86
f 80//80 87//87 92//92
f 92//92 93//93 80//80
f 92//92 91//91 82//82
f 82//82 85//85 92//92
f 91//91 94//94 83//83
f 83//83 82//82 91//91
f 94//94 93//93 84//84
f 84//84 83//83 94//94
f 93//93 92//92 85//85
f 85//85 84//84 93//93
f 81//81 86//86 95//95
f 79//79 95//95 30//30
f 79//79 81//81 95//95
f 90//90 96//96 29//29
f 96//96 87//87 29//29
f 15//15 78//78 24//24
f 88//88 87//87 97//97
f 97//97 90//90 88//88
f 96//96 97//97 87//87
f 97//97 96//96 90//90
f 98//98 99//99 100//100
f 100//100 101//101 98//98
f 101//101 100//100 102//102
f 102//102 100//100 103//103
f 100//100 104//104 103//103
f 105//105 100//100 99//99
f 100//100 106//106 104//104
f 105//105 107//107 100//100
f 107//107 106//106 100//100
f 105//105 108//108 109//109
f 109//109 107//107 105//105
f 99//99 110//110 108//108
f 108//108 105//105 99//99
f 110//110 111//111 112//112
f 112//112 108//108 110//110
f 98//98 113//113 99//99
f 101//101 114//114 113//113
f 113//113 98//98 101//101
f 102//102 115//115 114//114
f 114//114 101//101 102//102
f 103//103 115//115 102//102
f 104//104 116//116 115//115
f 115//115 103//103 104//104
f 114//114 117//117 118//118
f 118//118 113//113 114//114
f 115//115 119//119 117//117
f 117//117 114//114 115//115
f 115//115 120//120 119//119
f 116//116 121//121 120//120
f 120//120 115//115 116//116
f 117//117 111//111 118//118
f 119//119 111//111 117//117
f 120//120 111//111 119//119
f 121//121 111//111 120//120
f 110//110 99//99 113//113
f 113//113 118//118 110//110
f 118//118 111//111 110//110
f 106//106 122//122 116//116
f 116//116 104//104 106//106
f 107//107 109//109 122//122
f 122//122 106//106 107//107
f 116//116 122//122 121//121
f 108//108 112//112 109//109
f 111//111 123//123 124//124
f 124//124 112//112 111//111
f 123//123 125//125 126//126
f 126//126 124//124 123//123
f 122//122 30//30 121//121
f 112//112 124//124 127//127
f 127//127 109//109 112//112
f 126//126 128//128 129//129
f 129//129 124//124 126//126
f 124//124 129//129 130//130
f 130//130 127//127 124//124
f 126//126 36//36 35//35
f 35//35 128//128 126//126
f 130//130 131//131 132//132
f 132//132 127//127 130//130
f 130//130 40//40 39//39
f 39//39 131//131 130//130
f 129//129 133//133 134//134
f 134//134 130//130 129//129
f 130//130 134//134 43//43
f 43//43 40//40 130//130
f 128//128 135//135 133//133
f 133//133 129//129 128//128
f 35//35 45//45 135//135
f 135//135 128//128 35//35
f 133//133 136//136 137//137
f 137//137 134//134 133//133
f 134//134 137//137 48//48
f 48//48 43//43 134//134
f 135//135 138//138 136//136
f 136//136 133//133 135//135
f 45//45 50//50 138//138
f 138//138 135//135 45//45
f 136//136 139//139 140//140
f 140//140 137//137 136//136
f 137//137 140//140 53//53
f 53//53 48//48 137//137
f 138//138 141//141 139//139
f 139//139 136//136 138//138
f 50//50 55//55 141//141
f 141//141 138//138 50//50
f 139//139 56//56 140//140
f 140//140 56//56 53//53
f 141//141 56//56 139//139
f 55//55 56//56 141//141
f 127//127 132//132 142//142
f 142//142 109//109 127//127
f 142//142 143//143 144//144
f 142//142 144//144 145//145
f 142//142 145//145 146//146
f 142//142 146//146 147//147
f 142//142 147//147 109//109
f 145//145 144//144 148//148
f 148//148 149//149 145//145
f 147//147 146//146 150//150
f 150//150 151//151 147//147
f 146//146 145//145 149//149
f 149//149 150//150 146//146
f 152//152 148//148 144//144
f 144//144 143//143 152//152
f 143//143 153//153 152//152
f 143//143 142//142 132//132
f 132//132 153//153 143//143
f 151//151 154//154 147//147
f 154//154 155//155 109//109
f 109//109 147//147 154//154
f 154//154 153//153 156//156
f 150//150 153//153 154//154
f 154//154 151//151 150//150
f 150//150 149//149 148//148
f 148//148 153//153 150//150
f 152//152 153//153 148//148
f 122//122 157//157 72//72
f 72//72 30//30 122//122
f 109//109 158//158 157//157
f 157//157 122//122 109//109
f 156//156 159//159 76//76
f 76//76 75//75 156//156
f 39//39 76//76 159//159
f 159//159 131//131 39//39
f 158//158 109//109 155//155
f 155//155 154//154 158//158
f 132//132 131//131 156//156
f 156//156 153//153 132//132
f 131//131 159//159 156//156
f 154//154 156//156 75//75
f 75//75 158//158 154//154
f 158//158 75//75 72//72
f 72//72 157//157 158//158
f 30//30 160//160 161//161
f 161//161 121//121 30//30
f 160//160 162//162 163//163
f 163//163 161//161 160//160
f 164//164 165//165 166//166
f 166//166 167//167 164//164
f 86//86 89//89 168//168
f 168//168 169//169 86//86
f 36//36 126//126 168//168
f 168//168 89//89 36//36
f 169//169 125//125 123//123
f 123//123 163//163 169//169
f 126//126 125//125 170//170
f 170//170 168//168 126//126
f 123//123 111//111 161//161
f 161//161 163//163 123//123
f 86//86 169//169 171//171
f 171//171 172//172 86//86
f 163//163 162//162 173//173
f 173//173 174//174 163//163
f 86//86 172//172 173//173
f 173//173 162//162 86//86
f 163//163 174//174 171//171
f 171//171 169//169 163//163
f 171//171 165//165 164//164
f 164//164 172//172 171//171
f 172//172 164//164 167//167
f 167//167 173//173 172//172
f 173//173 167//167 166//166
f 166//166 174//174 173//173
f 174//174 166//166 165//165
f 165//165 171//171 174//174
f 162//162 95//95 86//86
f 160//160 30//30 95//95
f 160//160 95//95 162//162
f 170//170 125//125 175//175
f 175//175 125//125 169//169
f 111//111 121//121 161//161
f 168//168 170//170 176//176
f 176//176 169//169 168//168
f 175//175 169//169 176//176
f 176//176 170//170 175//175
# 348 faces, 0 coords texture

# End of File
